<mxfile host="Electron" modified="2023-12-11T18:35:21.930Z" agent="Mozilla/5.0 (Windows NT 10.0; Win64; x64) AppleWebKit/537.36 (KHTML, like Gecko) draw.io/22.1.2 Chrome/114.0.5735.289 Electron/25.9.4 Safari/537.36" etag="zvOAujss9MnMxHVq8A3V" version="22.1.2" type="device">
  <diagram name="Page-1" id="jVIoMmVYkiLipGJSKjRQ">
    <mxGraphModel dx="695" dy="1917" grid="1" gridSize="10" guides="1" tooltips="1" connect="1" arrows="1" fold="1" page="1" pageScale="1" pageWidth="850" pageHeight="1100" math="0" shadow="0">
      <root>
        <mxCell id="0" />
        <mxCell id="1" parent="0" />
        <mxCell id="aD9QmJv0C-MRXKoE5NFU-1" value="uber : Uber" style="rounded=0;whiteSpace=wrap;html=1;" parent="1" vertex="1">
          <mxGeometry x="290" y="80" width="120" height="60" as="geometry" />
        </mxCell>
        <mxCell id="aD9QmJv0C-MRXKoE5NFU-2" value="Passenger" style="shape=umlActor;verticalLabelPosition=bottom;verticalAlign=top;html=1;outlineConnect=0;" parent="1" vertex="1">
          <mxGeometry x="60" y="80" width="30" height="60" as="geometry" />
        </mxCell>
        <mxCell id="aD9QmJv0C-MRXKoE5NFU-3" value="" style="endArrow=none;dashed=1;html=1;rounded=0;entryX=0.5;entryY=1;entryDx=0;entryDy=0;" parent="1" target="aD9QmJv0C-MRXKoE5NFU-1" edge="1">
          <mxGeometry width="50" height="50" relative="1" as="geometry">
            <mxPoint x="350" y="630.800048828125" as="sourcePoint" />
            <mxPoint x="375" y="250" as="targetPoint" />
          </mxGeometry>
        </mxCell>
        <mxCell id="aD9QmJv0C-MRXKoE5NFU-4" value="uber: Uber" style="rounded=1;whiteSpace=wrap;html=1;rotation=90;" parent="1" vertex="1">
          <mxGeometry x="315" y="222.5" width="70" height="45" as="geometry" />
        </mxCell>
        <mxCell id="aD9QmJv0C-MRXKoE5NFU-5" value="" style="endArrow=classic;html=1;rounded=0;entryX=0.5;entryY=0;entryDx=0;entryDy=0;" parent="1" target="aD9QmJv0C-MRXKoE5NFU-4" edge="1">
          <mxGeometry width="50" height="50" relative="1" as="geometry">
            <mxPoint x="350" y="180" as="sourcePoint" />
            <mxPoint x="450" y="180" as="targetPoint" />
            <Array as="points">
              <mxPoint x="440" y="180" />
              <mxPoint x="440" y="245" />
            </Array>
          </mxGeometry>
        </mxCell>
        <mxCell id="aD9QmJv0C-MRXKoE5NFU-6" value="" style="endArrow=none;dashed=1;html=1;rounded=0;entryX=0.5;entryY=1;entryDx=0;entryDy=0;" parent="1" edge="1">
          <mxGeometry width="50" height="50" relative="1" as="geometry">
            <mxPoint x="74.5" y="630.800048828125" as="sourcePoint" />
            <mxPoint x="74.5" y="140" as="targetPoint" />
          </mxGeometry>
        </mxCell>
        <mxCell id="aD9QmJv0C-MRXKoE5NFU-7" value="" style="endArrow=classic;html=1;rounded=0;entryX=0.38;entryY=1.06;entryDx=0;entryDy=0;entryPerimeter=0;" parent="1" target="aD9QmJv0C-MRXKoE5NFU-4" edge="1">
          <mxGeometry width="50" height="50" relative="1" as="geometry">
            <mxPoint x="80" y="237" as="sourcePoint" />
            <mxPoint x="450" y="300" as="targetPoint" />
          </mxGeometry>
        </mxCell>
        <mxCell id="aD9QmJv0C-MRXKoE5NFU-8" value="1. Open Application" style="text;html=1;strokeColor=none;fillColor=none;align=center;verticalAlign=middle;whiteSpace=wrap;rounded=0;" parent="1" vertex="1">
          <mxGeometry x="150" y="192.5" width="60" height="30" as="geometry" />
        </mxCell>
        <mxCell id="aD9QmJv0C-MRXKoE5NFU-9" value="passengerUber : PassengerUber" style="rounded=0;whiteSpace=wrap;html=1;" parent="1" vertex="1">
          <mxGeometry x="480" y="80" width="120" height="60" as="geometry" />
        </mxCell>
        <mxCell id="aD9QmJv0C-MRXKoE5NFU-10" value="" style="endArrow=none;dashed=1;html=1;rounded=0;entryX=0.5;entryY=1;entryDx=0;entryDy=0;" parent="1" target="aD9QmJv0C-MRXKoE5NFU-9" edge="1">
          <mxGeometry width="50" height="50" relative="1" as="geometry">
            <mxPoint x="540" y="630.800048828125" as="sourcePoint" />
            <mxPoint x="565" y="250" as="targetPoint" />
          </mxGeometry>
        </mxCell>
        <mxCell id="aD9QmJv0C-MRXKoE5NFU-13" value="" style="endArrow=classic;html=1;rounded=0;" parent="1" edge="1">
          <mxGeometry width="50" height="50" relative="1" as="geometry">
            <mxPoint x="350" y="330" as="sourcePoint" />
            <mxPoint x="540" y="330" as="targetPoint" />
          </mxGeometry>
        </mxCell>
        <mxCell id="aD9QmJv0C-MRXKoE5NFU-15" value="passenger : Passenger" style="rounded=0;whiteSpace=wrap;html=1;" parent="1" vertex="1">
          <mxGeometry x="1100" y="80" width="120" height="60" as="geometry" />
        </mxCell>
        <mxCell id="aD9QmJv0C-MRXKoE5NFU-16" value="" style="endArrow=none;dashed=1;html=1;rounded=0;entryX=0.5;entryY=1;entryDx=0;entryDy=0;" parent="1" target="aD9QmJv0C-MRXKoE5NFU-15" edge="1">
          <mxGeometry width="50" height="50" relative="1" as="geometry">
            <mxPoint x="1160" y="320" as="sourcePoint" />
            <mxPoint x="1185" y="250" as="targetPoint" />
          </mxGeometry>
        </mxCell>
        <mxCell id="aD9QmJv0C-MRXKoE5NFU-17" value="ans == 1" style="ellipse;whiteSpace=wrap;html=1;" parent="1" vertex="1">
          <mxGeometry x="365" y="290" width="120" height="80" as="geometry" />
        </mxCell>
        <mxCell id="aD9QmJv0C-MRXKoE5NFU-18" value="passengerDisplay : PassengerDisplay" style="rounded=0;whiteSpace=wrap;html=1;" parent="1" vertex="1">
          <mxGeometry x="920" y="80" width="120" height="60" as="geometry" />
        </mxCell>
        <mxCell id="aD9QmJv0C-MRXKoE5NFU-19" value="" style="endArrow=none;dashed=1;html=1;rounded=0;entryX=0.5;entryY=1;entryDx=0;entryDy=0;" parent="1" target="aD9QmJv0C-MRXKoE5NFU-18" edge="1">
          <mxGeometry width="50" height="50" relative="1" as="geometry">
            <mxPoint x="980" y="630.800048828125" as="sourcePoint" />
            <mxPoint x="1005" y="250" as="targetPoint" />
          </mxGeometry>
        </mxCell>
        <mxCell id="aD9QmJv0C-MRXKoE5NFU-21" value="passengerUber : PassengerUber" style="rounded=1;whiteSpace=wrap;html=1;rotation=90;" parent="1" vertex="1">
          <mxGeometry x="493.75" y="203.75" width="105" height="57.5" as="geometry" />
        </mxCell>
        <mxCell id="aD9QmJv0C-MRXKoE5NFU-22" value="" style="endArrow=classic;html=1;rounded=0;entryX=0.5;entryY=0;entryDx=0;entryDy=0;" parent="1" edge="1">
          <mxGeometry width="50" height="50" relative="1" as="geometry">
            <mxPoint x="550" y="157.5" as="sourcePoint" />
            <mxPoint x="573" y="222.5" as="targetPoint" />
            <Array as="points">
              <mxPoint x="640" y="157.5" />
              <mxPoint x="640" y="222.5" />
            </Array>
          </mxGeometry>
        </mxCell>
        <mxCell id="aD9QmJv0C-MRXKoE5NFU-24" value="" style="endArrow=classic;html=1;rounded=0;" parent="1" edge="1">
          <mxGeometry width="50" height="50" relative="1" as="geometry">
            <mxPoint x="540" y="310" as="sourcePoint" />
            <mxPoint x="740" y="310" as="targetPoint" />
          </mxGeometry>
        </mxCell>
        <mxCell id="aD9QmJv0C-MRXKoE5NFU-25" value="3. login" style="text;html=1;strokeColor=none;fillColor=none;align=center;verticalAlign=middle;whiteSpace=wrap;rounded=0;" parent="1" vertex="1">
          <mxGeometry x="610" y="260" width="60" height="30" as="geometry" />
        </mxCell>
        <mxCell id="aD9QmJv0C-MRXKoE5NFU-26" value="2. Passenger Portal" style="text;html=1;strokeColor=none;fillColor=none;align=center;verticalAlign=middle;whiteSpace=wrap;rounded=0;" parent="1" vertex="1">
          <mxGeometry x="395" y="400" width="60" height="22.5" as="geometry" />
        </mxCell>
        <mxCell id="s3hwl-vG3r-t7AtLr7HW-1" value="ans == 1" style="ellipse;whiteSpace=wrap;html=1;" vertex="1" parent="1">
          <mxGeometry x="580" y="290" width="120" height="80" as="geometry" />
        </mxCell>
        <mxCell id="s3hwl-vG3r-t7AtLr7HW-3" value="passengerLogIn :&lt;br&gt;PassengerLogIn" style="rounded=0;whiteSpace=wrap;html=1;" vertex="1" parent="1">
          <mxGeometry x="700" y="80" width="120" height="60" as="geometry" />
        </mxCell>
        <mxCell id="s3hwl-vG3r-t7AtLr7HW-4" value="" style="endArrow=none;dashed=1;html=1;rounded=0;entryX=0.5;entryY=1;entryDx=0;entryDy=0;" edge="1" parent="1" target="s3hwl-vG3r-t7AtLr7HW-3">
          <mxGeometry width="50" height="50" relative="1" as="geometry">
            <mxPoint x="760" y="630.800048828125" as="sourcePoint" />
            <mxPoint x="785" y="250" as="targetPoint" />
          </mxGeometry>
        </mxCell>
        <mxCell id="s3hwl-vG3r-t7AtLr7HW-5" value="userAuthentication : UserAuthentication" style="rounded=0;whiteSpace=wrap;html=1;" vertex="1" parent="1">
          <mxGeometry x="800" y="-210" width="120" height="60" as="geometry" />
        </mxCell>
        <mxCell id="s3hwl-vG3r-t7AtLr7HW-6" value="" style="endArrow=none;dashed=1;html=1;rounded=0;entryX=0.5;entryY=1;entryDx=0;entryDy=0;" edge="1" parent="1" target="s3hwl-vG3r-t7AtLr7HW-5">
          <mxGeometry width="50" height="50" relative="1" as="geometry">
            <mxPoint x="860" y="220" as="sourcePoint" />
            <mxPoint x="885" y="127.1" as="targetPoint" />
          </mxGeometry>
        </mxCell>
        <mxCell id="s3hwl-vG3r-t7AtLr7HW-8" value="" style="endArrow=classic;html=1;rounded=0;" edge="1" parent="1">
          <mxGeometry width="50" height="50" relative="1" as="geometry">
            <mxPoint x="760" y="190" as="sourcePoint" />
            <mxPoint x="860" y="190" as="targetPoint" />
          </mxGeometry>
        </mxCell>
        <mxCell id="s3hwl-vG3r-t7AtLr7HW-9" value="" style="rounded=1;whiteSpace=wrap;html=1;rotation=90;" vertex="1" parent="1">
          <mxGeometry x="823.75" y="-75" width="72.5" height="40" as="geometry" />
        </mxCell>
        <mxCell id="s3hwl-vG3r-t7AtLr7HW-11" value="" style="endArrow=classic;html=1;rounded=0;entryX=0.5;entryY=0;entryDx=0;entryDy=0;" edge="1" parent="1">
          <mxGeometry width="50" height="50" relative="1" as="geometry">
            <mxPoint x="860" y="-130" as="sourcePoint" />
            <mxPoint x="883" y="-65" as="targetPoint" />
            <Array as="points">
              <mxPoint x="950" y="-130" />
              <mxPoint x="950" y="-65" />
            </Array>
          </mxGeometry>
        </mxCell>
        <mxCell id="s3hwl-vG3r-t7AtLr7HW-13" value="" style="endArrow=classic;html=1;rounded=0;" edge="1" parent="1">
          <mxGeometry width="50" height="50" relative="1" as="geometry">
            <mxPoint x="860" y="207.08" as="sourcePoint" />
            <mxPoint x="760" y="207.08" as="targetPoint" />
          </mxGeometry>
        </mxCell>
        <mxCell id="s3hwl-vG3r-t7AtLr7HW-14" value="4. verify&lt;br&gt;Passenger&lt;br&gt;Account" style="text;html=1;strokeColor=none;fillColor=none;align=center;verticalAlign=middle;whiteSpace=wrap;rounded=0;" vertex="1" parent="1">
          <mxGeometry x="780" y="150" width="60" height="30" as="geometry" />
        </mxCell>
        <mxCell id="s3hwl-vG3r-t7AtLr7HW-15" value="5. return checked passenger message" style="text;html=1;strokeColor=none;fillColor=none;align=center;verticalAlign=middle;whiteSpace=wrap;rounded=0;" vertex="1" parent="1">
          <mxGeometry x="780" y="217.5" width="60" height="32.5" as="geometry" />
        </mxCell>
        <mxCell id="s3hwl-vG3r-t7AtLr7HW-16" value="passengerRepository : PassengerRepository" style="rounded=0;whiteSpace=wrap;html=1;" vertex="1" parent="1">
          <mxGeometry x="980" y="-395" width="120" height="60" as="geometry" />
        </mxCell>
        <mxCell id="s3hwl-vG3r-t7AtLr7HW-17" value="" style="endArrow=none;dashed=1;html=1;rounded=0;entryX=0.5;entryY=1;entryDx=0;entryDy=0;" edge="1" parent="1" target="s3hwl-vG3r-t7AtLr7HW-16">
          <mxGeometry width="50" height="50" relative="1" as="geometry">
            <mxPoint x="1040" y="60" as="sourcePoint" />
            <mxPoint x="1065" y="-57.900000000000006" as="targetPoint" />
          </mxGeometry>
        </mxCell>
        <mxCell id="s3hwl-vG3r-t7AtLr7HW-18" value="" style="rounded=1;whiteSpace=wrap;html=1;rotation=90;" vertex="1" parent="1">
          <mxGeometry x="1003.75" y="-260" width="72.5" height="40" as="geometry" />
        </mxCell>
        <mxCell id="s3hwl-vG3r-t7AtLr7HW-19" value="" style="endArrow=classic;html=1;rounded=0;entryX=0.5;entryY=0;entryDx=0;entryDy=0;" edge="1" parent="1">
          <mxGeometry width="50" height="50" relative="1" as="geometry">
            <mxPoint x="1040" y="-315" as="sourcePoint" />
            <mxPoint x="1063" y="-250" as="targetPoint" />
            <Array as="points">
              <mxPoint x="1130" y="-315" />
              <mxPoint x="1130" y="-250" />
            </Array>
          </mxGeometry>
        </mxCell>
        <mxCell id="s3hwl-vG3r-t7AtLr7HW-20" value="6. verify&lt;br&gt;Passenger" style="text;html=1;strokeColor=none;fillColor=none;align=center;verticalAlign=middle;whiteSpace=wrap;rounded=0;" vertex="1" parent="1">
          <mxGeometry x="920" y="-37" width="60" height="30" as="geometry" />
        </mxCell>
        <mxCell id="s3hwl-vG3r-t7AtLr7HW-21" value="" style="endArrow=classic;html=1;rounded=0;" edge="1" parent="1">
          <mxGeometry width="50" height="50" relative="1" as="geometry">
            <mxPoint x="860" y="3" as="sourcePoint" />
            <mxPoint x="1040" y="3" as="targetPoint" />
          </mxGeometry>
        </mxCell>
        <mxCell id="s3hwl-vG3r-t7AtLr7HW-22" value="SQLiteConnection" style="rounded=0;whiteSpace=wrap;html=1;" vertex="1" parent="1">
          <mxGeometry x="1130" y="-395" width="120" height="60" as="geometry" />
        </mxCell>
        <mxCell id="s3hwl-vG3r-t7AtLr7HW-23" value="" style="endArrow=none;dashed=1;html=1;rounded=0;entryX=0.5;entryY=1;entryDx=0;entryDy=0;" edge="1" parent="1" target="s3hwl-vG3r-t7AtLr7HW-22">
          <mxGeometry width="50" height="50" relative="1" as="geometry">
            <mxPoint x="1190" y="60" as="sourcePoint" />
            <mxPoint x="1215" y="-57.900000000000006" as="targetPoint" />
          </mxGeometry>
        </mxCell>
        <mxCell id="s3hwl-vG3r-t7AtLr7HW-24" value="7. connectDatabase" style="text;html=1;strokeColor=none;fillColor=none;align=center;verticalAlign=middle;whiteSpace=wrap;rounded=0;" vertex="1" parent="1">
          <mxGeometry x="1100" y="-170" width="60" height="30" as="geometry" />
        </mxCell>
        <mxCell id="s3hwl-vG3r-t7AtLr7HW-25" value="" style="endArrow=classic;html=1;rounded=0;" edge="1" parent="1">
          <mxGeometry width="50" height="50" relative="1" as="geometry">
            <mxPoint x="1040" y="-130" as="sourcePoint" />
            <mxPoint x="1190" y="-130" as="targetPoint" />
          </mxGeometry>
        </mxCell>
        <mxCell id="s3hwl-vG3r-t7AtLr7HW-26" value="" style="endArrow=classic;html=1;rounded=0;" edge="1" parent="1">
          <mxGeometry width="50" height="50" relative="1" as="geometry">
            <mxPoint x="1190" y="-60" as="sourcePoint" />
            <mxPoint x="1040" y="-60" as="targetPoint" />
          </mxGeometry>
        </mxCell>
        <mxCell id="s3hwl-vG3r-t7AtLr7HW-27" value="8. return connection message" style="text;html=1;strokeColor=none;fillColor=none;align=center;verticalAlign=middle;whiteSpace=wrap;rounded=0;" vertex="1" parent="1">
          <mxGeometry x="1090" y="-100" width="60" height="30" as="geometry" />
        </mxCell>
        <mxCell id="s3hwl-vG3r-t7AtLr7HW-28" value="9. return passenger data" style="text;html=1;strokeColor=none;fillColor=none;align=center;verticalAlign=middle;whiteSpace=wrap;rounded=0;" vertex="1" parent="1">
          <mxGeometry x="920" y="17" width="60" height="30" as="geometry" />
        </mxCell>
        <mxCell id="s3hwl-vG3r-t7AtLr7HW-29" value="" style="endArrow=classic;html=1;rounded=0;" edge="1" parent="1">
          <mxGeometry width="50" height="50" relative="1" as="geometry">
            <mxPoint x="1040" y="57" as="sourcePoint" />
            <mxPoint x="860" y="57" as="targetPoint" />
          </mxGeometry>
        </mxCell>
        <mxCell id="s3hwl-vG3r-t7AtLr7HW-30" value="" style="endArrow=classic;html=1;rounded=0;" edge="1" parent="1">
          <mxGeometry width="50" height="50" relative="1" as="geometry">
            <mxPoint x="760" y="330" as="sourcePoint" />
            <mxPoint x="980" y="330" as="targetPoint" />
          </mxGeometry>
        </mxCell>
        <mxCell id="s3hwl-vG3r-t7AtLr7HW-32" value="check&amp;nbsp;" style="ellipse;whiteSpace=wrap;html=1;" vertex="1" parent="1">
          <mxGeometry x="810" y="290" width="120" height="80" as="geometry" />
        </mxCell>
        <mxCell id="s3hwl-vG3r-t7AtLr7HW-34" value="bookRide : BookRide" style="rounded=0;whiteSpace=wrap;html=1;" vertex="1" parent="1">
          <mxGeometry x="1290" y="80" width="120" height="60" as="geometry" />
        </mxCell>
        <mxCell id="s3hwl-vG3r-t7AtLr7HW-35" value="" style="endArrow=none;dashed=1;html=1;rounded=0;entryX=0.5;entryY=1;entryDx=0;entryDy=0;" edge="1" parent="1" target="s3hwl-vG3r-t7AtLr7HW-34">
          <mxGeometry width="50" height="50" relative="1" as="geometry">
            <mxPoint x="1350" y="630.800048828125" as="sourcePoint" />
            <mxPoint x="1375" y="250" as="targetPoint" />
          </mxGeometry>
        </mxCell>
      </root>
    </mxGraphModel>
  </diagram>
</mxfile>
